<svg id="Lager_1" data-name="Lager 1" xmlns="http://www.w3.org/2000/svg" viewBox="0 0 1030.87 1811.18"><defs><style>.cls-1,.cls-3{fill:#29abe2;}.cls-1{opacity:0.52;}.cls-2,.cls-4{fill:#75ff71;}.cls-2{opacity:0.57;}</style></defs><path class="cls-1" d="M509.49,263.72c-36.14-31.75-54.94-21.69-75.11-47-28-35.11-.63-65.56-26.69-99.06-22.84-29.37-48.81-12.3-100.38-45.75C260.6,41.61,257.94,12.05,232,13.22c-22,1-40.54,23.16-71.17,59.83-19.75,23.65-21.73,32.2-38.12,42.7C96.5,132.51,83.27,122.43,65.07,136c-24.56,18.27-11.79,45-31.51,87.34-22.06,47.32-49.25,37.85-66.15,78.26-24.93,59.58,15,126.05,19.83,133.91,15.93,25.72,24.32,23.34,49.07,51.74,61.86,71,44.24,125.74,82.12,145.11,31.6,16.17,74.51-10,160.32-62.28,67.25-41,54.7-43.5,179.47-137.3,65.07-48.92,96.95-69.64,95.72-101.55C552.81,301.79,524.07,276.54,509.49,263.72Zm-75.63,78.73c5.07,17.7,2.61,40.88-9.49,58.4-22.29,32.26-58.18,17.76-103.43,54.12-19.51,15.69-13.34,18.79-36.62,41-42.51,40.66-62.2,49.59-74.1,52.68-16.1,4.17-26.31,6.82-37.5,2.47-34.68-13.47-13.63-72.44-58-119-26.34-27.64-46.94-25.7-58.34-53.51-11.07-27-4-59.1,9.36-80.88,20-32.67,42.88-23.93,75.56-54,35.36-32.56,28.57-69.63,73.05-118.49,6.47-7.1,15.57-16.25,27.09-15.88,16.44.51,22.6,19.92,40.83,38.85,34.25,35.52,62.5,16.17,83.3,45.95,22,31.44-.07,54,23,95.13C404.55,317.85,426.32,316.14,433.86,342.45Z" transform="translate(86.11 181.62)"/><path class="cls-2" d="M586,281.2c-5.39-13.43-21.31-54.39-62.31-83.07-33-23.09-58.33-20.7-66.05-43-7.39-21.33,11.73-35.25,3.38-60.32-4.41-13.27-14.89-21.22-35.66-36.57C390.1,32.17,375.8,32.42,340.63,8.55s-29.21-29.71-45.71-34.81C248.9-40.49,194.85,3,176.75,17.5,136.16,50.13,132.18,74.29,97,82.81c-24.69,6-34.54-3-49.66,7.49-23,16-10.69,43.26-29.39,79-22,42.1-54.56,32.9-82.46,74.94-21,31.59-21.28,65-21.57,96.35-.16,17,.08,80.64,40.75,140.8C-7,538.14,20.77,522.9,56.21,577.12c40,61.22,27,115.34,58,124.45,16.25,4.78,35-5.88,73.84-30.83,46.29-29.75,52-46.14,89.29-71.17C322.84,569,333,580.9,376.78,554.51c49.39-29.77,41-47.59,100.74-102.43,69.78-64,116.18-71.75,121.31-115.78C600.92,318.38,595.07,303.81,586,281.2ZM456.93,412.88c-32.51,34.77-50.07,23.19-104.77,58.93-55.78,36.45-54.6,58.59-119.49,101.13-40.44,26.52-63.77,40.67-85,35.18-34.9-9-25.21-62-86.53-131.6-12.38-14-18.94-18.89-29.55-34.65C20.63,425.63-2.13,390.68,3.32,345q0-.3.06-.48C8.67,302,37.92,271.18,49.54,259c18.14-19.08,25.4-18.39,50.4-44.26,20-20.7,32.84-39.22,41.18-51.4,27.09-39.5,28.07-54,53.37-80.8,15.87-16.8,24.25-25.4,37-26.19C253.43,55,259.74,77,292.75,98c46.13,29.24,77.18,13,93.76,39.75,10.82,17.48-2.2,24.73,6.3,57.63,1.47,5.72,13.82,51,52.88,78.16,29.27,20.35,39.58,16.84,48.14,32.79C509.73,335.91,483.82,384.1,456.93,412.88Z" transform="translate(86.11 181.62)"/><path class="cls-1" d="M377.55,1080.55c34,18.06,46.77,6.77,67.13,22.75,28.27,22.17,12.57,50.92,39,72.2,23.2,18.66,40.27.59,86.58,17.13,42,15,49.47,37.51,69.48,31.81,17-4.83,27.3-25.49,44.38-59.69,11-22,11-29.07,21.82-40.26,17.28-17.86,29.43-12.46,41.1-26.35,15.76-18.76.89-37.24,8.45-73.8,8.46-40.91,31.36-38.55,37.08-73.12,8.43-51-34.87-95.37-40.11-100.59-17.26-17.22-24.44-14.94-47.73-31.24C635.8,771.12,636,706.77,603,706c-24.36-.56-25.4,34.43-80,62-29.14,14.72-36.75,8.73-52,23-23.77,22.23-14.08,45-34.45,85.93-9.47,19-11.08,15.52-50.22,62.58-41.65,50.08-62.65,72.07-55.82,96.69C336.81,1058.9,363.84,1073.26,377.55,1080.55Zm44.37-75.22a34.39,34.39,0,0,1-1.21-4.23c-5.21-24.66,32.05-49,66.29-88.1,35.61-40.64,33.39-57.72,68.25-81.94,16.76-11.64,32.3-22,48.22-17.71,23.64,6.4,17,39.23,50.43,63.38,25.47,18.41,41.06,11.86,55.27,30.91,15.4,20.65,10.42,48.43,7.62,64.68-5.53,32.1-21.77,54.91-39,79.1-22.64,31.8-29.22,29.49-38.91,51.07-14.69,32.73-8.09,57.11-19.07,60.47-10.4,3.18-16.88-18.52-44.06-34.32-33.6-19.53-52.06-1.47-73.31-20.43-22.89-20.43-9.89-42-35.43-69.82C445.86,1015.36,428.74,1021.25,421.92,1005.33Z" transform="translate(86.11 181.62)"/><path class="cls-2" d="M314.76,1081c25.88,19.65,43.89,9.41,86.09,37.19,17.81,11.72,30.89,20.59,37.06,37.32,7.14,19.32-1.3,31.76,8.48,47.58,5.88,9.52,15.5,13.77,34.5,21.9,32.26,13.8,43.35,11,75.12,23.07s28.21,17.75,42,18.68c38.45,2.6,72.53-41.18,83.94-55.84,25.59-32.88,24.23-52.41,50.06-65.54,20.45-10.39,26.18-4.66,37.28-15,25.49-23.69-7.1-61.92,14.84-109.71,13.82-30.1,34.66-32.18,42.56-66.93,4-17.43,2-31.33.36-42.8-8.33-58.71-48.79-93.94-57.66-102.11-40.31-37.1-59.12-20.12-96.69-55.81-42.43-40.29-42.3-84.81-68.08-86.2-16.81-.9-19.2,17.91-51.81,37.61-41.82,25.26-59.28,7.24-88.11,28.6-17.06,12.64-29.52,40.91-53.14,97.77-26.53,63.88-19.25,60-29.94,76C342.77,965,286.4,956,276.23,996.85,268.71,1027,291.66,1063.5,314.76,1081ZM386,986c8-20.39,14.15-20.5,35-56,16.23-27.63,13-28.47,22.73-39.72,16.7-19.33,42.24-35.1,44.19-36.61,19.92-15.46,23.59-16.59,33.38-29.59,17.58-23.33,16-33.25,34.79-48.23,6.71-5.34,33.62-26.76,58-18.06,16.93,6.05,25.07,23.93,32.9,41.15,13.68,30,6.22,41.83,19.28,54,13.88,13,24.13,1.4,49,14.81,26.4,14.21,39.89,40.71,41.39,56.66a62.89,62.89,0,0,1,0,10.49c-1.66,11.63-9.48,19.71-20.2,64.6-7.94,33.22-7.35,43.6-17.75,63.75-8.58,16.62-10.42,12.35-26.35,37.56-15.42,24.4-18.12,35.41-36.23,62.76-15.94,24.05-20.95,26.28-24,27.2-16.19,4.9-24.48-11-55.34-21.14-26.92-8.86-37.8,2.68-64.53-11.91a87.62,87.62,0,0,1-14.75-10.19c-38.75-32.28-28-73.83-56.29-92.36-23.16-15.14-46.13,5.14-59.35-10.68C369.09,1029.22,380.94,998.92,386,986Z" transform="translate(86.11 181.62)"/><path class="cls-3" d="M462,1178" transform="translate(86.11 181.62)"/><path class="cls-4" d="M546,1165" transform="translate(86.11 181.62)"/><path class="cls-1" d="M628.74,108c23.79,12.64,32.73,4.73,47,15.92,19.79,15.52,8.8,35.64,27.31,50.54,16.24,13.06,28.19.41,60.61,12,29.36,10.49,34.63,26.26,48.64,22.27,11.88-3.38,19.1-17.85,31.06-41.78,7.72-15.44,7.69-20.35,15.27-28.19,12.1-12.5,20.6-8.72,28.78-18.45,11-13.12.62-26.06,5.91-51.65,5.92-28.64,22-27,26-51.18,5.91-35.68-24.4-66.76-28.07-70.42-12-12-16.26-9.59-33.41-21.87-42.87-30.7-40.33-62.82-63.46-68.49C775-148.06,755-128.28,715-88.72c-31.36,31-24.2,30.76-80.1,98C605.73,44.3,591,59.7,595.81,76.93,600.22,92.82,619.14,102.87,628.74,108ZM659.8,55.32c-3.4-7.93.39-16.48,47-75.88,14.41-18.36,26-32.8,46.3-46.11,13.65-9,23.43-15.19,33.75-12.4,16.55,4.49,11.91,27.46,35.3,44.37,17.83,12.89,28.74,8.3,38.69,21.64,10.78,14.45,7.3,33.9,5.33,45.27C862.33,54.68,851,70.65,838.91,87.59c-15.84,22.25-20.45,20.63-27.23,35.74-10.29,22.91-5.67,40-13.35,42.33-7.28,2.23-11.82-13-30.84-24C744,128,731,140.61,716.17,127.33c-16-14.3-6.92-29.41-24.8-48.87C676.55,62.34,664.57,66.46,659.8,55.32Z" transform="translate(86.11 181.62)"/><path class="cls-2" d="M584.79,108.32c18.11,13.75,30.72,6.58,60.26,26,12.47,8.21,21.62,14.41,25.94,26.12,5,13.53-.91,22.24,5.94,33.31,4.11,6.66,10.85,9.64,24.15,15.33,22.58,9.66,30.34,7.68,52.58,16.15s19.75,12.42,29.4,13.08c26.92,1.82,50.77-28.83,58.76-39.09,17.91-23,17-36.69,35-45.88,14.32-7.27,18.33-3.27,26.1-10.48,17.84-16.59-5-43.34,10.39-76.8C923,45,937.6,43.57,943.13,19.24c2.78-12.2,1.4-21.93.26-30C937.56-51.81,909.24-76.47,903-82.19c-28.22-26-41.39-14.09-67.69-39.07-29.69-28.2-29.6-59.37-47.65-60.34-11.77-.63-13.44,12.54-36.27,26.33-29.27,17.68-41.5,5.06-61.68,20-11.94,8.84-20.66,28.63-37.19,68.43-18.58,44.72-13.48,42-21,53.22-27.2,40.68-66.66,34.4-73.78,63C552.55,70.51,568.61,96,584.79,108.32ZM626,65c-.29-3-1.06-14,6-29,3.17-6.71,6.49-11.19,32-38,15.58-16.37,14.87-15.25,18-19,15.18-18.16,13.68-22.65,24-29.84,4.16-2.9,10.11-6.52,17.6-13.93a59.81,59.81,0,0,0,5.77-6.78c12.31-16.34,11.19-23.28,24.36-33.76C758.41-109,777.25-124,794.3-118c11.85,4.24,17.55,16.76,23,28.81,9.58,21,4.35,29.28,13.5,37.83,9.71,9.09,16.89,1,34.32,10.37,18.49,10,27.93,28.49,29,39.66a44.73,44.73,0,0,1,0,7.35C893,14.2,887.51,19.85,880,51.27c-5.55,23.26-5.14,30.52-12.42,44.63-6,11.63-7.3,8.64-18.45,26.29-10.79,17.08-12.68,24.79-25.36,43.93-11.15,16.84-14.66,18.4-16.8,19-11.33,3.43-17.14-7.69-38.75-14.81-18.84-6.2-26.46,1.88-45.17-8.33a62.1,62.1,0,0,1-10.32-7.13c-27.13-22.6-19.57-51.69-39.4-64.66C658.5,80.55,642,94.4,631.78,82.77,627.21,77.53,626.54,70.56,626,65Z" transform="translate(86.11 181.62)"/><path class="cls-4" d="M746.65,167.09" transform="translate(86.11 181.62)"/><path class="cls-1" d="M479.09,1389.35c-19.78-18.29-30.45-12.92-41.39-27.37-15.18-20,.57-36.71-13.54-55.83-12.38-16.76-27.16-7.57-55.56-27-25.72-17.62-26.8-34.21-41.37-33.92-12.34.25-23,12.39-40.68,32.5-11.38,13-12.61,17.72-21.94,23.37-14.88,9-22.14,3.18-32.52,10.51-14,9.89-7.23,25.05-18.87,48.45-13,26.18-28.1,20.5-38.13,42.89-14.79,33,6.61,70.77,9.22,75.24,8.56,14.62,13.29,13.41,26.75,29.65,33.63,40.61,23,71,43.93,82.39,17.46,9.5,41.85-4.54,90.63-32.61,38.22-22,31.23-23.59,102.39-74.34,37.12-26.48,55.26-37.63,55-55.51C502.81,1411.26,487.08,1396.72,479.09,1389.35Zm-43.44,43c1.26,8.53-4.58,15.83-64.8,61.4-18.61,14.09-33.53,25.09-56.51,32.8-15.49,5.2-26.53,8.73-35.8,3.4-14.86-8.55-4.52-29.58-22.84-51.89-14-17-25.68-15.35-31.91-30.77-6.74-16.73,1.58-34.64,6.37-45.15,9.47-20.74,24.52-33.29,40.49-46.6,21-17.48,25-14.75,35.44-27.63,15.78-19.54,15.66-37.22,23.69-37.54,7.61-.3,8.13,15.55,23.71,31.09,19.26,19.2,35,10.27,46,26.89,11.85,17.91-.79,30.21,11.54,53.58C421.23,1421.3,433.87,1420.37,435.65,1432.36Z" transform="translate(86.11 181.62)"/><path class="cls-2" d="M521.68,1400.2c-14-17.91-28-14.19-51.65-40.51-10-11.11-17.24-19.45-18.44-31.87-1.38-14.35,6.55-21.27,2.75-33.72-2.29-7.49-8-12.09-19.45-21-19.38-15.09-27.39-15.15-46.75-29s-15.93-17-25.09-20.13c-25.57-8.61-56.44,15-66.78,22.84-23.18,17.7-25.74,31.16-45.57,35.44-15.69,3.39-18.55-1.5-27.9,3.5-21.48,11.49-6.23,43.18-29.6,71.62-14.72,17.91-29.19,15.61-40.73,37.72-5.79,11.1-6.94,20.85-7.88,28.91-4.82,41.22,16.29,72.28,20.84,79.39,20.67,32.31,36.43,24.16,55.5,55,21.54,34.83,13.52,65,30.72,70.48,11.23,3.61,16.19-8.7,41.78-16.22,32.81-9.65,41.42,5.66,64.74-3.66,13.8-5.52,27.28-22.43,53.4-56.71,29.35-38.52,23.73-37.22,33.81-46.13,36.66-32.41,73.22-16.3,87.38-42.12C543.23,1445,534.2,1416.19,521.68,1400.2ZM454,1456c-32.11,22.29-25.17,34.55-53.62,50.35-11.23,6.23-24.15,11.68-36.43,16.91-16.24,6.92-18.93,7-27.88,14.08C320,1550,319.33,1557,303.93,1563.79c-5.49,2.42-27.53,12.12-42.47,1.89-10.38-7.11-12.7-20.67-14.94-33.72-3.9-22.78,3.25-29.42-3.41-40-7.08-11.26-16.09-5.25-30.56-18.76-15.34-14.33-19.75-34.67-17.92-45.74a43.68,43.68,0,0,1,1.86-7.11c3.19-7.57,9.92-11.64,25.18-40.12,11.3-21.07,12.75-28.21,23.38-40,8.77-9.72,9.26-6.51,24.53-20.73,14.78-13.77,18.58-20.75,35.71-36,15.07-13.44,18.86-14.06,21.1-14.14,11.83-.43,14.61,11.8,33.7,24.18,16.64,10.79,26.06,4.92,41.56,19.56a60.7,60.7,0,0,1,8.16,9.53c20.48,28.76,5.77,55,21.65,72.55,10.18,11.28,22.66,2.5,38.27,17.81,3.75,3.68,10.92,10.7,10.27,19C479.24,1441.83,468.21,1446.14,454,1456Z" transform="translate(86.11 181.62)"/><path class="cls-4" d="M380.11,1302.16" transform="translate(86.11 181.62)"/><path class="cls-3" d="M480,1462" transform="translate(86.11 181.62)"/></svg>