<svg id="Lager_1" data-name="Lager 1" xmlns="http://www.w3.org/2000/svg" viewBox="0 0 1338 651"><defs><style>.cls-1{fill:#29abe2;}</style></defs><circle class="cls-1" cx="527" cy="180" r="104.5"/><path d="M555,108A104,104,0,1,1,451,212,104.11,104.11,0,0,1,555,108m0-1A105,105,0,1,0,660,212,105,105,0,0,0,555,107Z" transform="translate(-28 -32)"/><circle class="cls-1" cx="1081" cy="546" r="104.5"/><path d="M1109,474a104,104,0,1,1-104,104,104.11,104.11,0,0,1,104-104m0-1a105,105,0,1,0,105,105,105,105,0,0,0-105-105Z" transform="translate(-28 -32)"/><circle class="cls-1" cx="388" cy="292" r="104.5"/><path d="M416,220A104,104,0,1,1,312,324,104.11,104.11,0,0,1,416,220m0-1A105,105,0,1,0,521,324,105,105,0,0,0,416,219Z" transform="translate(-28 -32)"/><circle class="cls-1" cx="1233" cy="105" r="104.5"/><path d="M1261,33a104,104,0,1,1-104,104A104.11,104.11,0,0,1,1261,33m0-1a105,105,0,1,0,105,105A105,105,0,0,0,1261,32Z" transform="translate(-28 -32)"/><circle class="cls-1" cx="105" cy="457" r="104.5"/><path d="M133,385A104,104,0,1,1,29,489,104.11,104.11,0,0,1,133,385m0-1A105,105,0,1,0,238,489,105,105,0,0,0,133,384Z" transform="translate(-28 -32)"/></svg>