<svg id="Lager_1" data-name="Lager 1" xmlns="http://www.w3.org/2000/svg" viewBox="0 0 1035.42 1448.51"><defs><style>.cls-1,.cls-3{fill:#29abe2;}.cls-1{opacity:0.52;}.cls-2,.cls-4{fill:#75ff71;}.cls-2{opacity:0.57;}</style></defs><path class="cls-1" d="M511,364c-22.19-42.69-43.35-40.11-53-71-13.39-42.87,23.16-61.34,11-102-10.66-35.65-41.05-29.15-77-79-32.57-45.16-24.35-73.68-49-82-20.9-7-46.17,6.9-88,30-27,14.89-31.92,22.15-51,26-30.45,6.15-39.13-8-61-2-29.51,8.14-27.3,37.71-61,70-37.7,36.13-59.61,17.46-90,49-44.81,46.51-31.69,122.91-30,132,5.53,29.75,14.21,30.57,27,66,32,88.56-4.29,133.23,24,165,23.61,26.51,73.07,17.67,172,0,77.52-13.85,66.74-20.74,217-63,78.37-22,115.59-29.81,126-60C537.6,415.17,520,381.23,511,364Zm-99,46c-6.67,33.17-65.61,46.59-146,64-95.3,20.64-155.87,33.76-177,5-17.37-23.65,11.54-48.93-7-101-13.18-37-33.87-41.31-35-71s18.46-57.12,38-72c30.48-23.21,48.65-6.78,90-23,65.49-25.69,72.86-89.39,111-84,10.39,1.47,25.4,16.33,55,46,38.11,38.2,57.17,57.3,61,73,9.09,37.26-19.6,50.27-13,97C394.47,382.71,416.26,388.78,412,410Z" transform="translate(90.66 181.62)"/><path class="cls-2" d="M576,408c-1.8-27.48-4.23-64.48-28-100-22.4-33.47-46.88-40.42-46-64,.84-22.56,23.7-28.61,25-55,.69-14-6.2-25.17-20-47-23.44-37.07-36.86-42-61-77s-16.47-38.27-30-49c-37.75-29.94-103.86-9-126-2-49.65,15.72-62.1,36.8-98,32-25.18-3.36-31.1-15.35-49-11-27.21,6.6-25.62,36.45-56,63-35.77,31.27-62.78,10.92-104,40-31,21.86-43.36,52.85-55,82-6.32,15.84-29.12,75.19-13,146,15.2,66.77,46.6,62.62,60,126,15.12,71.55-16.56,117.3,9,137,16.67,12.85,32.46-4.83,80-2,61,3.63,66.17,34.56,111,33,41-1.43,46.27-27.66,124-63,35-15.9,62.52-23.6,89-31,108.05-30.2,140.26-12.32,168-44C581.56,492.81,578.73,449.63,576,408ZM408,484c-24.26,13.51-35.33,13.62-100,29-64,15.23-94.46,25-167,39-64.16,12.43-80.28,12.56-92,2-17.18-15.47-5-35.92-15-91C24.09,408.61,8.39,407.75,1,357c-4.53-31.09-9.66-66.37,9-101,20.33-37.71,58.73-55.81,74-63,23.81-11.22,30.32-7.94,63-23,26.16-12.05,44.81-24.68,57-33,39.55-27,45.73-40.22,79-56,20.88-9.91,31.8-14.89,44-11,20.14,6.43,17.42,28.66,42,61,27.1,35.66,46.67,30,58,58,8.4,20.76-1.79,25.27,0,69,1,23.82,2.38,58.34,21,92,16.87,30.51,30.87,29.56,33,48C485.78,439.46,418.9,477.93,408,484Z" transform="translate(90.66 181.62)"/><path class="cls-1" d="M377.55,1080.55c34,18.06,46.77,6.77,67.13,22.75,28.27,22.17,12.57,50.92,39,72.2,23.2,18.66,40.27.59,86.58,17.13,42,15,49.47,37.51,69.48,31.81,17-4.83,27.3-25.49,44.38-59.69,11-22,11-29.07,21.82-40.26,17.28-17.86,29.43-12.46,41.1-26.35,15.76-18.76.89-37.24,8.45-73.8,8.46-40.91,31.36-38.55,37.08-73.12,8.43-51-34.87-95.37-40.11-100.59-17.14-17.09-23.23-13.7-47.73-31.24-61.24-43.86-57.61-89.74-90.66-97.85-27.58-6.76-56.17,21.5-113.34,78-44.8,44.29-34.57,44-114.42,140-41.65,50.08-62.65,72.07-55.82,96.69C336.81,1058.9,363.84,1073.26,377.55,1080.55Zm44.37-75.22c-4.85-11.33.57-23.54,67.18-108.4,20.59-26.22,37.2-46.85,66.15-65.87,19.5-12.81,33.47-21.71,48.22-17.71,23.64,6.4,17,39.23,50.43,63.38,25.47,18.41,41.06,11.86,55.27,30.91,15.4,20.65,10.42,48.43,7.62,64.68-5.53,32.1-21.77,54.91-39,79.1-22.64,31.8-29.22,29.49-38.91,51.07-14.69,32.73-8.09,57.11-19.07,60.47-10.4,3.18-16.88-18.52-44.06-34.32-33.6-19.53-52.06-1.47-73.31-20.43-22.89-20.43-9.89-42-35.43-69.82C445.86,1015.36,428.74,1021.25,421.92,1005.33Z" transform="translate(90.66 181.62)"/><path class="cls-2" d="M314.76,1081c25.88,19.65,43.89,9.41,86.09,37.19,17.81,11.72,30.89,20.59,37.06,37.32,7.14,19.32-1.3,31.76,8.48,47.58,5.88,9.52,15.5,13.77,34.5,21.9,32.26,13.8,43.35,11,75.12,23.07s28.21,17.75,42,18.68c38.45,2.6,72.53-41.18,83.94-55.84,25.59-32.88,24.23-52.41,50.06-65.54,20.45-10.39,26.18-4.66,37.28-15,25.49-23.69-7.1-61.92,14.84-109.71,13.82-30.1,34.66-32.18,42.56-66.93,4-17.43,2-31.33.36-42.8-8.33-58.71-48.79-93.94-57.66-102.11-40.31-37.1-59.12-20.12-96.69-55.81-42.43-40.29-42.3-84.81-68.08-86.2-16.81-.9-19.2,17.91-51.81,37.61-41.82,25.26-59.28,7.24-88.11,28.6-17.06,12.64-29.52,40.91-53.14,97.77-26.53,63.88-19.25,60-29.94,76C342.77,965,286.4,956,276.23,996.85,268.71,1027,291.66,1063.5,314.76,1081ZM391,954.75a114,114,0,0,1,6.71-11.9,248.12,248.12,0,0,1,46-52.57c62-53.85,62.94-46.78,77.57-66.2,17.58-23.33,16-33.25,34.79-48.23,6.71-5.34,33.62-26.76,58-18.06,16.93,6.05,25.07,23.93,32.9,41.15,13.68,30,6.22,41.83,19.28,54,13.88,13,24.13,1.4,49,14.81,26.4,14.21,39.89,40.71,41.39,56.66a62.89,62.89,0,0,1,0,10.49c-1.66,11.63-9.48,19.71-20.2,64.6-7.94,33.22-7.35,43.6-17.75,63.75-8.58,16.62-10.42,12.35-26.35,37.56-15.42,24.4-18.12,35.41-36.23,62.76-15.94,24.05-20.95,26.28-24,27.2-16.19,4.9-24.48-11-55.34-21.14-26.92-8.86-37.8,2.68-64.53-11.91a87.62,87.62,0,0,1-14.75-10.19c-38.75-32.28-28-73.83-56.29-92.36-24-15.69-44.63,5.67-59.35-10.68C364.29,1025,379.33,978.31,391,954.75Z" transform="translate(90.66 181.62)"/><path class="cls-3" d="M462,1178" transform="translate(90.66 181.62)"/><path class="cls-4" d="M546,1165" transform="translate(90.66 181.62)"/><path class="cls-1" d="M628.74,108c23.79,12.64,32.73,4.73,47,15.92,19.79,15.52,8.8,35.64,27.31,50.54,16.24,13.06,28.19.41,60.61,12,29.36,10.49,34.63,26.26,48.64,22.27,11.88-3.38,19.1-17.85,31.06-41.78,7.72-15.44,7.69-20.35,15.27-28.19,12.1-12.5,20.6-8.72,28.78-18.45,11-13.12.62-26.06,5.91-51.65,5.92-28.64,22-27,26-51.18,5.91-35.68-24.4-66.76-28.07-70.42-12-12-16.26-9.59-33.41-21.87-42.87-30.7-40.33-62.82-63.46-68.49C775-148.06,755-128.28,715-88.72c-31.36,31-24.2,30.76-80.1,98C605.73,44.3,591,59.7,595.81,76.93,600.22,92.82,619.14,102.87,628.74,108ZM659.8,55.32c-3.4-7.93.39-16.48,47-75.88,14.41-18.36,26-32.8,46.3-46.11,13.65-9,23.43-15.19,33.75-12.4,16.55,4.49,11.91,27.46,35.3,44.37,17.83,12.89,28.74,8.3,38.69,21.64,10.78,14.45,7.3,33.9,5.33,45.27C862.33,54.68,851,70.65,838.91,87.59c-15.84,22.25-20.45,20.63-27.23,35.74-10.29,22.91-5.67,40-13.35,42.33-7.28,2.23-11.82-13-30.84-24C744,128,731,140.61,716.17,127.33c-16-14.3-6.92-29.41-24.8-48.87C676.55,62.34,664.57,66.46,659.8,55.32Z" transform="translate(90.66 181.62)"/><path class="cls-2" d="M584.79,108.32c18.11,13.75,30.72,6.58,60.26,26,12.47,8.21,21.62,14.41,25.94,26.12,5,13.53-.91,22.24,5.94,33.31,4.11,6.66,10.85,9.64,24.15,15.33,22.58,9.66,30.34,7.68,52.58,16.15s19.75,12.42,29.4,13.08c26.92,1.82,50.77-28.83,58.76-39.09,17.91-23,17-36.69,35-45.88,14.32-7.27,18.33-3.27,26.1-10.48,17.84-16.59-5-43.34,10.39-76.8C923,45,937.6,43.57,943.13,19.24c2.78-12.2,1.4-21.93.26-30C937.56-51.81,909.24-76.47,903-82.19c-28.22-26-41.39-14.09-67.69-39.07-29.69-28.2-29.6-59.37-47.65-60.34-11.77-.63-13.44,12.54-36.27,26.33-29.27,17.68-41.5,5.06-61.68,20-11.94,8.84-20.66,28.63-37.19,68.43-18.58,44.72-13.48,42-21,53.22-27.2,40.68-66.66,34.4-73.78,63C552.55,70.51,568.61,96,584.79,108.32Zm53.36-88.4a75.44,75.44,0,0,1,4.7-8.33,173,173,0,0,1,32.22-36.8c43.38-37.7,44-32.75,54.3-46.34,12.3-16.34,11.18-23.28,24.35-33.76C758.41-109,777.25-124,794.3-118c11.85,4.24,17.55,16.76,23,28.81,9.58,21,4.35,29.28,13.5,37.83,9.71,9.09,16.89,1,34.32,10.37,18.49,10,27.93,28.49,29,39.66a44.73,44.73,0,0,1,0,7.35C893,14.2,887.51,19.85,880,51.27c-5.55,23.26-5.14,30.52-12.42,44.63-6,11.63-7.3,8.64-18.45,26.29-10.79,17.08-12.68,24.79-25.36,43.93-11.15,16.84-14.66,18.4-16.8,19-11.33,3.43-17.14-7.69-38.75-14.81-18.84-6.2-26.46,1.88-45.17-8.33a62.1,62.1,0,0,1-10.32-7.13c-27.13-22.6-19.57-51.69-39.4-64.66-16.8-11-31.24,4-41.55-7.47C619.46,69.08,630,36.4,638.15,19.92Z" transform="translate(90.66 181.62)"/><path class="cls-4" d="M746.65,167.09" transform="translate(90.66 181.62)"/></svg>