<svg id="Lager_1" data-name="Lager 1" xmlns="http://www.w3.org/2000/svg" xmlns:xlink="http://www.w3.org/1999/xlink" viewBox="0 0 1016.47 1474.17"><defs><style>.cls-1{fill:none;}.cls-2{clip-path:url(#clip-path);}.cls-3{fill:#29abe2;}.cls-3,.cls-4{opacity:0.48;}.cls-5{fill:#75ff71;}</style><clipPath id="clip-path" transform="translate(108.79 50.58)"><rect class="cls-1" width="768" height="1366"/></clipPath></defs><g class="cls-2"><path class="cls-3" d="M-69.26,464.22C-42.18,476-21.74,458.13,33,445.52c85.65-19.7,96.46,1.47,122.1-18.7,42.32-33.27,9.66-88.34,63.8-162.8,13.79-18.95,28.78-39,55-47.3,39.67-12.55,59.43,16.23,103.4,12.1,49.68-4.65,84-47.89,108.9-80.3,58.26-75.68,62.29-161.6,61.6-199.1L478.54-44c1.51,14.88,7.72,91-45.1,146.3-7.57,7.93-38.67,38.32-86.9,48.4-59.93,12.53-81.73-18.38-125.4,1.1-21.12,9.43-33.14,24.62-57.2,55a279.4,279.4,0,0,0-24.69,36C123,271.52,120.05,280.56,110,295.92c-16.2,24.9-36.5,38.15-53.9,49.5-80,52.25-154,30.16-163.9,61.6C-113.82,426.29-92.23,454.2-69.26,464.22Z" transform="translate(108.79 50.58)"/><g class="cls-4"><path class="cls-5" d="M514.84-47.28c1.48,17.9,5.69,93.32-47.3,156.2-5.42,6.44-55.29,64.17-132,72.6-48.67,5.35-65.79-12.66-99,3.3-14.89,7.16-23.58,16.62-63.8,80.3-56,88.72-58.05,100.27-80.3,114.4C74.44,391,47.26,395.4-7.11,404.27c-41.64,6.8-76.56,10.24-101.2,12.1q.56-23.64,1.1-47.3C-47.57,344.07-.67,323.93,27.13,312A105.51,105.51,0,0,0,51.5,297.76a112.32,112.32,0,0,0,22.72-24.07c22.38-31.68,29.84-58.24,50.12-88.87,13.07-19.72,27.46-41.45,55-56.1,25.34-13.47,50.43-14.88,61.6-15.4,33.68-1.56,38.78,8.81,73.7,5.5,31.61-3,47.43-13.36,50.87-15.7,13.11-8.91,20.8-19.69,27.33-30.11C417.93,33,433-15,440.26-40.92Z" transform="translate(108.79 50.58)"/></g><path class="cls-3" d="M866.47,1067c-23.12-18.4-47.49-6.37-103.66-8.32C675,1055.6,670,1032.36,640,1045.23c-49.47,21.23-32.11,82.86-103.63,140.83-18.21,14.76-37.87,30.26-65.34,31.51-41.57,1.9-53.24-31-96.78-38.36-49.2-8.31-93.48,24.62-125.93,49.49-75.81,58.1-101.86,140.07-110.87,176.47l68.65,11.5c2.39-14.76,16-89.9,81.32-129.71,9.35-5.71,47.24-27,96.44-24.35,61.14,3.36,74.22,38.85,121.44,31.29,22.84-3.66,38.38-15.23,69.45-38.39a278.43,278.43,0,0,0,33.14-28.38c23.13-23.56,28.3-31.53,41.92-43.8,22.08-19.87,45.11-27.43,64.85-33.92,90.8-29.83,156.57,10.59,174.24-17.24C899.74,1115.13,886.08,1082.59,866.47,1067Z" transform="translate(108.79 50.58)"/><g class="cls-4"><path class="cls-5" d="M170.19,1410.5c3.19-17.67,18.58-91.63,86-138.71,6.9-4.82,70-47.74,146.26-36.1,48.41,7.39,60.3,29.21,96.5,22.35,16.24-3.07,27.07-10,82.36-61.12,77-71.27,82-81.9,107.09-89.82,20.34-6.4,47.75-3.68,102.57,1.77,42,4.17,76.61,9.86,100.89,14.41l-13.26,45.42c-64.07,8.77-114.58,16.13-144.53,20.54a105.33,105.33,0,0,0-27.2,7.42,112.79,112.79,0,0,0-28.16,17.39c-29.79,24.84-43.85,48.57-71.35,72.93-17.71,15.69-37.23,33-67.61,40-28,6.48-52.56,1.37-63.49-1-32.94-7.18-35.19-18.51-69.79-24.33-31.31-5.26-49.26.68-53.19,2-15,5.23-25.18,13.66-34.18,22-34.57,32.21-61.53,74.62-75.2,97.85Z" transform="translate(108.79 50.58)"/></g><path class="cls-3" d="M795.43,237.81C769.5,252,771.12,279.1,747.5,330.11c-30.36,65.56-51.54,74.22-58,93.36A43.32,43.32,0,0,0,687.43,438c-1.35,40.31-65.15,106.1-67.43,158-2.4,54.63,65.09,56.92,87.68,139,15.62,56.72-17.63,80.28-3.3,135.27,24.1,92.42,89.52,148.26,119.56,170.7l37.26-58.8c-12.68-7.93-76.62-49.68-88-125.3-1.62-10.85-6.57-54.05,15-98.33,26.84-55,64.62-53.31,76-99.76,5.5-22.46.86-41.28-8.4-78.91a278.22,278.22,0,0,0-13.29-41.55c-12.73-30.47-18.07-38.33-24.07-55.65-9.74-28.06-7.77-52.22-6.08-72.93,7.78-95.26,70.57-140.16,51.79-167.26C852.72,225.86,817.43,225.8,795.43,237.81Z" transform="translate(108.79 50.58)"/><g class="cls-4"><path class="cls-5" d="M840.56,1012.85c-15-9.8-77.21-52.71-94.43-133.12-13.54-63.28,37.28-88,23.55-148.79C753.91,661.05,685.82,653.88,685,590c-.25-19.61,5.66-58.71,31-89,16.44-19.65,42.35-37.12,46-70.49.61-5.62-.38-6.53.23-13,2-21.23,15.15-45.43,41.46-93.82,20.15-37.07,38.85-66.77,52.47-87.38l36.7,29.86c-16.8,62.44-29.63,111.85-37.2,141.16a105.77,105.77,0,0,0-3.73,27.95c.08,17.18,4.24,26.33,5.09,32.7,5,36.94-92.24,65.7-90,94,2.51,32.19,130.69,30.59,140.14,77.88,3.6,18-11.38,37.93-25.59,58.11-19.41,27.57-30.72,25.24-49.52,54.86-17,26.81-18.51,45.67-18.77,49.82-1,15.83,2.81,28.5,7,40.05,16.25,44.37,44.86,85.69,61,107.3Z" transform="translate(108.79 50.58)"/></g></g></svg>